<svg width="31" height="30" viewBox="0 0 31 30" fill="none" xmlns="http://www.w3.org/2000/svg">
<path fill-rule="evenodd" clip-rule="evenodd" d="M4.62116 0.867676H9.55033C11.6066 0.867676 13.2545 2.51654 13.2545 4.53963V9.42744C13.2545 11.4634 11.6066 13.098 9.55033 13.098H4.62116C2.57949 13.098 0.916992 11.4634 0.916992 9.42744V4.53963C0.916992 2.51654 2.57949 0.867676 4.62116 0.867676ZM4.62116 17.3129H9.55033C11.6066 17.3129 13.2545 18.9489 13.2545 20.9849V25.8727C13.2545 27.8943 11.6066 29.5432 9.55033 29.5432H4.62116C2.57949 29.5432 0.916992 27.8943 0.916992 25.8727V20.9849C0.916992 18.9489 2.57949 17.3129 4.62116 17.3129ZM26.3796 0.867676H21.4504C19.3942 0.867676 17.7463 2.51654 17.7463 4.53963V9.42744C17.7463 11.4634 19.3942 13.098 21.4504 13.098H26.3796C28.4213 13.098 30.0838 11.4634 30.0838 9.42744V4.53963C30.0838 2.51654 28.4213 0.867676 26.3796 0.867676ZM21.4504 17.3129H26.3796C28.4213 17.3129 30.0838 18.9489 30.0838 20.9849V25.8727C30.0838 27.8943 28.4213 29.5432 26.3796 29.5432H21.4504C19.3942 29.5432 17.7463 27.8943 17.7463 25.8727V20.9849C17.7463 18.9489 19.3942 17.3129 21.4504 17.3129Z" fill="#FF5B22"/>
</svg>
