<svg width="29" height="31" viewBox="0 0 29 31" fill="none" xmlns="http://www.w3.org/2000/svg">
<path d="M10.3343 28.7911V24.173C10.3343 23.0027 11.2559 22.052 12.3974 22.0446H16.5889C17.7355 22.0446 18.6651 22.9975 18.6651 24.173V28.7777C18.665 29.7927 19.4639 30.6176 20.454 30.6249H23.3136C24.6491 30.6285 25.9312 30.0871 26.8768 29.1202C27.8224 28.1534 28.3538 26.8405 28.3538 25.4714V12.3533C28.3538 11.2474 27.8756 10.1983 27.0481 9.48877L17.3332 1.52423C15.635 0.131139 13.2096 0.176141 11.5617 1.63131L2.05573 9.48877C1.18909 10.1774 0.671105 11.2296 0.645508 12.3533V25.458C0.645508 28.3116 2.90211 30.6249 5.68576 30.6249H8.4801C8.9568 30.6285 9.41518 30.4369 9.75349 30.0926C10.0918 29.7483 10.2821 29.2798 10.2821 28.7911H10.3343Z" fill="#FF5B22"/>
</svg>
