<svg width="28" height="28" viewBox="0 0 28 28" fill="none" xmlns="http://www.w3.org/2000/svg">
<path fill-rule="evenodd" clip-rule="evenodd" d="M9.95324 3.42621C12.5022 1.94513 15.6354 1.97102 18.1605 3.49402C20.6607 5.04805 22.1803 7.82152 22.1661 10.805C22.108 13.7689 20.4785 16.555 18.4417 18.7088C17.2661 19.9574 15.9511 21.0616 14.5233 21.9987C14.3763 22.0837 14.2152 22.1406 14.0481 22.1666C13.8872 22.1598 13.7305 22.1123 13.5922 22.0283C11.4125 20.6203 9.50023 18.823 7.9474 16.7229C6.64803 14.9699 5.90982 12.852 5.83301 10.6568C5.83132 7.6676 7.40423 4.90729 9.95324 3.42621ZM11.4263 11.8939C11.855 12.951 12.8671 13.6405 13.9899 13.6405C14.7255 13.6458 15.4326 13.3511 15.9537 12.8222C16.4747 12.2933 16.7665 11.5741 16.7639 10.8248C16.7678 9.68102 16.0944 8.64768 15.0582 8.20722C14.022 7.76675 12.8273 8.00605 12.0319 8.81338C11.2366 9.62072 10.9975 10.8368 11.4263 11.8939Z" fill="#FF5B22" fill-opacity="0.5"/>
<ellipse opacity="0.4" cx="13.9993" cy="24.4999" rx="5.83333" ry="1.16667" fill="#FF5B22" fill-opacity="0.5"/>
</svg>
