<svg width="25" height="30" viewBox="0 0 25 30" fill="none" xmlns="http://www.w3.org/2000/svg">
<path fill-rule="evenodd" clip-rule="evenodd" d="M12.1038 29.4198C12.2653 29.5028 12.4459 29.545 12.6265 29.5436C12.807 29.5422 12.9862 29.4986 13.1491 29.4142L18.3523 26.6796C19.8278 25.9063 20.9832 25.0416 21.8847 24.0349C23.8447 21.8416 24.915 19.0422 24.8959 16.1557L24.8342 6.63438C24.8283 5.53771 24.0957 4.55914 23.0122 4.20343L13.3326 1.01043C12.7498 0.816404 12.1111 0.820622 11.5386 1.02027L1.89568 4.32716C0.818053 4.69693 0.0986552 5.68253 0.104528 6.78061L0.166191 16.2949C0.185277 19.1856 1.29227 21.9723 3.28456 24.1432C4.19482 25.1358 5.36054 25.9878 6.85219 26.7485L12.1038 29.4198ZM10.7262 18.2294C10.9435 18.4347 11.2254 18.5359 11.5072 18.5331C11.7891 18.5317 12.0696 18.4277 12.2839 18.2196L17.9701 12.7081C18.3973 12.2933 18.3929 11.6269 17.9613 11.2178C17.5282 10.8086 16.8308 10.8114 16.4036 11.2262L11.4911 15.9869L9.47972 14.086C9.04661 13.6768 8.3507 13.6811 7.922 14.0958C7.49477 14.5106 7.49917 15.177 7.93228 15.5862L10.7262 18.2294Z" fill="#FF5B22"/>
</svg>
