<svg width="22" height="20" viewBox="0 0 22 20" fill="none" xmlns="http://www.w3.org/2000/svg">
<path fill-rule="evenodd" clip-rule="evenodd" d="M11.7141 1.44083L14.0301 6.09983C14.1461 6.33483 14.3701 6.49883 14.6301 6.53683L19.8151 7.28583C20.0251 7.31383 20.2141 7.42383 20.3431 7.59183C20.5851 7.90683 20.5481 8.35283 20.2581 8.62383L16.5001 12.2578C16.3091 12.4378 16.2241 12.7018 16.2741 12.9588L17.1741 18.0868C17.2371 18.5118 16.9471 18.9098 16.5221 18.9788C16.3461 19.0058 16.1661 18.9778 16.0061 18.8988L11.3881 16.4778C11.1561 16.3518 10.8781 16.3518 10.6461 16.4778L5.99413 18.9118C5.60513 19.1098 5.12913 18.9628 4.91713 18.5818C4.83613 18.4278 4.80813 18.2528 4.83613 18.0818L5.73613 12.9538C5.78113 12.6978 5.69613 12.4348 5.51013 12.2538L1.73213 8.62083C1.42413 8.31483 1.42213 7.81683 1.72913 7.50883C1.73013 7.50783 1.73113 7.50583 1.73213 7.50483C1.85913 7.38983 2.01513 7.31283 2.18413 7.28283L7.37013 6.53383C7.62913 6.49283 7.85213 6.33083 7.97013 6.09583L10.2841 1.44083C10.3771 1.25183 10.5421 1.10683 10.7421 1.04083C10.9431 0.97383 11.1631 0.98983 11.3521 1.08483C11.5071 1.16183 11.6341 1.28683 11.7141 1.44083Z" stroke="#FFB800" stroke-width="1.5" stroke-linecap="round" stroke-linejoin="round"/>
</svg>
