<svg width="21" height="20" viewBox="0 0 21 20" fill="none" xmlns="http://www.w3.org/2000/svg">
<path d="M15.9179 12.32C15.6589 12.571 15.5399 12.934 15.5989 13.29L16.4879 18.21C16.5629 18.627 16.3869 19.049 16.0379 19.29C15.6959 19.54 15.2409 19.57 14.8679 19.37L10.4389 17.06C10.2849 16.978 10.1139 16.934 9.9389 16.929H9.6679C9.5739 16.943 9.4819 16.973 9.3979 17.019L4.9679 19.34C4.7489 19.45 4.5009 19.489 4.2579 19.45C3.6659 19.338 3.2709 18.774 3.3679 18.179L4.2579 13.259C4.3169 12.9 4.1979 12.535 3.9389 12.28L0.327899 8.78C0.0258993 8.487 -0.0791007 8.047 0.0588992 7.65C0.192899 7.254 0.534899 6.965 0.947899 6.9L5.9179 6.179C6.2959 6.14 6.6279 5.91 6.7979 5.57L8.9879 1.08C9.0399 0.98 9.1069 0.888 9.1879 0.81L9.2779 0.74C9.3249 0.688 9.3789 0.645 9.4389 0.61L9.5479 0.57L9.7179 0.5H10.1389C10.5149 0.539 10.8459 0.764 11.0189 1.1L13.2379 5.57C13.3979 5.897 13.7089 6.124 14.0679 6.179L19.0379 6.9C19.4579 6.96 19.8089 7.25 19.9479 7.65C20.0789 8.051 19.9659 8.491 19.6579 8.78L15.9179 12.32Z" fill="#FFB800"/>
</svg>
