<svg width="31" height="27" viewBox="0 0 31 27" fill="none" xmlns="http://www.w3.org/2000/svg">
<path fill-rule="evenodd" clip-rule="evenodd" d="M23.9133 8.01765H30.0837C30.0837 3.14676 27.1151 0.30127 22.0855 0.30127H8.91514C3.88551 0.30127 0.916992 3.14676 0.916992 7.95552V18.4553C0.916992 23.264 3.88551 26.1095 8.91514 26.1095H22.0855C27.1151 26.1095 30.0837 23.264 30.0837 18.4553V18.0079H23.9133C21.0496 18.0079 18.7281 15.7827 18.7281 13.0377C18.7281 10.2926 21.0496 8.06736 23.9133 8.06736V8.01765ZM23.9134 10.1549H28.9949C29.5963 10.1549 30.0838 10.6222 30.0838 11.1986V14.827C30.0768 15.4006 29.5933 15.864 28.9949 15.8707H24.0301C22.5803 15.8894 21.3126 14.938 20.9838 13.5844C20.8191 12.7441 21.0503 11.8771 21.6153 11.2156C22.1804 10.5541 23.0216 10.1659 23.9134 10.1549ZM24.134 13.9696H24.6136C25.2293 13.9696 25.7284 13.4911 25.7284 12.901C25.7284 12.3108 25.2293 11.8323 24.6136 11.8323H24.134C23.8395 11.829 23.5559 11.9388 23.3465 12.1373C23.137 12.3357 23.0191 12.6062 23.0192 12.8885C23.0191 13.4808 23.5162 13.9628 24.134 13.9696ZM7.82639 8.01765H16.0579C16.6736 8.01765 17.1727 7.53921 17.1727 6.94903C17.1727 6.35885 16.6736 5.88042 16.0579 5.88042H7.82639C7.21572 5.88038 6.71867 6.35129 6.71157 6.93661C6.71153 7.52883 7.2086 8.01084 7.82639 8.01765Z" fill="#FF5B22"/>
</svg>
